<svg xmlns="http://www.w3.org/2000/svg" width="197.782" height="55.623"><g fill="#B2B3B5"><path d="M17.108 10.189l.039-.754h-.238l-.276.754-3.164 9.176h2.926zM5.717 29.806L16.276.734h5.221l-1.78 29.072h-4.152l.436-5.933h-4.114L9.87 29.806zM39.215.734l-4.904 23.098a10.985 10.985 0 0 1-1.383 3.164c-.594.791-1.266 1.545-2.176 2.136-.949.674-2.096.991-3.48.991-1.385 0-2.412-.317-3.125-.991-.672-.591-1.028-1.345-1.186-2.136-.277-.908-.277-1.936-.041-3.164L27.824.734h4.272l-4.904 23.098c-.198.754-.118 1.386.199 1.82.158.199.394.316.75.316.752 0 1.226-.474 1.504-1.066.119-.238.277-.596.394-1.07L34.944.734zM39.381 5.126L40.33.733h12.34l-.949 4.393h-4.033l-5.221 24.68h-4.272l5.221-24.68zM59.501 6.708c.158-.791.08-1.387-.198-1.82-.157-.2-.435-.317-.79-.317-.752 0-1.227.555-1.502 1.067a4.326 4.326 0 0 0-.359 1.07l-3.638 17.123c-.198.754-.117 1.387.2 1.82.158.2.394.317.75.317.752 0 1.226-.475 1.503-1.067.12-.238.278-.595.395-1.07zm.633 17.123a11.027 11.027 0 0 1-1.383 3.164c-.594.791-1.266 1.545-2.176 2.137-.949.674-2.095.99-3.48.99-1.386 0-2.412-.316-3.125-.99-.672-.592-1.029-1.346-1.186-2.137-.278-.908-.278-1.935-.041-3.164l3.638-17.123a9.622 9.622 0 0 1 1.347-3.127c.593-.791 1.226-1.582 2.134-2.174.91-.594 2.097-.99 3.522-.99 1.424 0 2.411.396 3.083.99.672.592 1.069 1.383 1.227 2.174.278.871.278 1.898.078 3.127zM73.592 8.527c.199-.949.395-2.018.277-2.848-.119-.791-.435-1.343-1.107-1.343-1.108.037-1.701 1.185-2.057 2.884-.199.991-.041 2.02.397 3.127a50.064 50.064 0 0 0 1.541 3.481 29.618 29.618 0 0 1 1.818 4.429c.438 1.461.633 2.965.279 4.547-.437 1.94-1.07 3.717-2.294 5.104-1.227 1.383-2.809 2.215-5.182 2.215-2.729 0-4.072-1.03-4.588-2.612-.592-1.582-.275-3.638.158-5.853l4.272-.395c-.276 1.225-.475 2.452-.356 3.36.117.949.434 1.582 1.346 1.582 1.266 0 1.976-1.344 2.41-3.201.199-.95 0-2.057-.434-3.206-.119-.275-.236-.591-.357-.871-.117-.275-.236-.591-.353-.869-.28-.592-.596-1.224-.913-1.898a56.423 56.423 0 0 1-.949-2.096 13.546 13.546 0 0 1-1.144-4.508c-.121-.754 0-1.545.158-2.336.316-1.582 1.027-3.281 2.252-4.588 1.148-1.265 2.73-2.173 4.746-2.214 2.652-.037 3.877 1.029 4.393 2.572.474 1.582.316 3.519-.042 5.142zM83.626 13.827c1.305 0 2.214-.238 2.807-.912.631-.633.948-1.699 1.305-3.322.357-1.62.476-2.727.159-3.481-.316-.67-1.107-1.027-2.414-1.027zM82.16.733h4.273c1.86 0 3.601.438 4.745 1.821 1.149 1.384 1.662 3.558.912 6.88-.753 3.323-2.136 5.459-3.837 6.844-1.7 1.383-3.679 1.899-5.538 1.899l-2.452 11.629h-4.272zM95.793.734h9.77l-.95 4.393h-5.498l-1.621 7.63h3.955l-.99 4.668h-3.955l-1.699 7.989h5.496l-.908 4.392h-9.77zM107.883.734h9.768l-.95 4.393h-5.496l-1.623 7.63h3.955l-.986 4.668h-3.955l-1.703 7.989h5.5l-.912 4.392h-9.768zM118.944 25.534c1.465 0 2.334-.158 3.084-1.582.674-1.307 1.229-3.639 1.623-5.537.197-.912.397-1.979.672-3.164.236-1.188.475-2.256.674-3.205.394-1.858.869-4.073.711-5.496-.119-1.387-.91-1.545-2.373-1.545zm-5.143 4.271l6.17-29.072h3.364c3.955 0 5.853.791 6.603 3.006.633 2.215.041 5.816-1.185 11.549-1.225 5.695-2.137 9.297-3.719 11.512-1.619 2.214-3.914 3.005-7.869 3.005zM5.493 45.075c.092-.463.191-.979.131-1.389-.059-.381-.211-.656-.539-.656-.541.02-.832.576-1.002 1.408-.1.487-.022.989.189 1.522.215.547.463 1.107.754 1.699.369.721.658 1.459.889 2.17.215.713.308 1.447.137 2.219-.217.945-.52 1.816-1.12 2.491-.603.675-1.373 1.083-2.531 1.083-1.334 0-1.99-.504-2.242-1.277-.289-.772-.137-1.782.078-2.854l2.084-.197c-.131.597-.23 1.199-.17 1.644.059.457.211.77.656.77.616 0 .965-.656 1.176-1.567.1-.461 0-1.002-.211-1.558-.058-.139-.117-.291-.174-.432-.06-.131-.117-.281-.175-.422-.137-.289-.289-.593-.442-.925-.156-.331-.314-.657-.468-1.026a6.738 6.738 0 0 1-.557-2.203c-.059-.369 0-.75.078-1.137.156-.773.498-1.605 1.1-2.239.562-.616 1.336-1.065 2.32-1.083 1.291-.023 1.893.504 2.141 1.258.232.773.156 1.722-.02 2.513zM11.934 45.89l.018-.368h-.112l-.138.368-1.543 4.482h1.429zM6.37 55.464l5.156-14.189h2.553l-.87 14.189H11.18l.211-2.9h-2.01l-.98 2.9zM18.192 55.464l.563-8.916.041-.605h-.12l-2.007 9.521h-1.934l3.018-14.189h2.544l-.152 6.486-.058.75h.039l.252-.75 2.623-6.486h2.55L22.54 55.464h-1.932l2.01-9.521h-.113l-.2.605-3.224 8.916zM27.844 41.275h4.768l-.457 2.139h-2.688l-.791 3.73h1.932l-.481 2.279h-1.933l-.83 3.903h2.683l-.447 2.138h-4.768zM37.225 53.378c.719 0 1.141-.076 1.51-.773.322-.633.595-1.774.791-2.696.094-.449.191-.97.322-1.551.119-.58.234-1.097.334-1.57.193-.898.424-1.98.346-2.674-.059-.677-.446-.754-1.158-.754zm-2.51 2.086l3.016-14.19h1.639c1.929 0 2.859.387 3.226 1.463.305 1.084.018 2.838-.578 5.643-.6 2.783-1.045 4.537-1.818 5.621-.791 1.076-1.914 1.463-3.844 1.463zM47.381 45.89l.018-.368h-.116l-.138.368-1.541 4.482h1.429zm-5.563 9.574l5.157-14.189h2.551l-.872 14.189h-2.025l.215-2.9h-2.016l-.984 2.9zM54.206 45.814l.021.129h.038l.099-.129 2.009-4.539h2.046l-3.861 8.148-1.274 6.041h-2.088l1.276-6.041-.383-8.148h2.045zM65.254 45.89l.02-.368h-.118l-.136.368-1.541 4.482h1.425zm-5.564 9.574l5.154-14.189h2.551l-.87 14.189h-2.023l.211-2.9h-2.012l-.986 2.9zM76.547 41.275l-2.395 11.271a5.386 5.386 0 0 1-.671 1.547c-.295.393-.622.762-1.065 1.043-.465.328-1.025.487-1.701.487-.676 0-1.178-.159-1.527-.487-.329-.281-.5-.65-.58-1.043-.131-.439-.131-.941-.02-1.547l2.4-11.271h2.082l-2.394 11.271c-.096.372-.061.686.098.887.076.104.195.158.365.158.367 0 .601-.236.732-.517.059-.117.139-.291.192-.528l2.398-11.271zM77.126 43.413l.469-2.139h6.023l-.466 2.139h-1.966l-2.55 12.051h-2.088L79.1 43.413zM87.45 44.193c.078-.393.037-.686-.094-.887-.08-.103-.211-.158-.385-.158-.365 0-.597.266-.734.518a2.118 2.118 0 0 0-.176.527l-1.775 8.354c-.1.371-.061.685.094.886.078.104.195.158.373.158.361 0 .597-.236.73-.517.061-.117.133-.291.192-.527zm.313 8.354a5.263 5.263 0 0 1-.676 1.546c-.291.393-.621.762-1.065 1.043-.459.328-1.025.487-1.699.487-.674 0-1.18-.159-1.525-.487a1.764 1.764 0 0 1-.577-1.043c-.138-.439-.138-.941-.019-1.546l1.773-8.354a4.694 4.694 0 0 1 .659-1.535c.291-.381.597-.774 1.041-1.055.445-.293 1.021-.486 1.722-.486.692 0 1.174.193 1.502.486.328.281.526.674.6 1.055.139.428.139.93.039 1.535zM96.235 47.659c.639 0 1.082-.109 1.375-.439.307-.311.457-.831.633-1.622.176-.791.234-1.332.08-1.701-.156-.328-.537-.502-1.178-.502zm-.711-6.385h2.086c.906 0 1.758.211 2.313.885.564.674.812 1.738.447 3.362-.369 1.622-1.043 2.665-1.873 3.339-.832.68-1.795.932-2.705.932l-1.198 5.672h-2.086zM104.508 45.89l.02-.368h-.116l-.14.368-1.541 4.482h1.427zm-5.563 9.574l5.153-14.189h2.553l-.872 14.189h-2.023l.211-2.9h-2.01l-.984 2.9zM111.075 47.55c.295 0 .678-.023 1.047-.313.361-.291.73-.791.941-1.794.211-1.004.08-1.528-.17-1.819-.254-.281-.64-.281-.925-.281zm-.039 7.914l.176-5.986h-.559l-1.256 5.986h-2.088l3.016-14.189h2.086c2.486 0 3.244 1.382 2.682 4.089-.309 1.407-.948 2.688-1.856 3.227l-.113 6.873zM116.295 43.413l.467-2.139h6.025l-.463 2.139h-1.968l-2.553 12.051h-2.082l2.551-12.051zM126.399 45.075c.092-.463.191-.979.133-1.389-.059-.381-.211-.656-.541-.656-.541.02-.83.576-1.002 1.408-.098.487-.02.989.191 1.522.213.547.461 1.107.75 1.699.369.721.66 1.459.891 2.17.215.713.31 1.447.137 2.219-.215.945-.52 1.816-1.118 2.491-.605.675-1.375 1.083-2.531 1.083-1.336 0-1.992-.504-2.242-1.277-.289-.772-.139-1.782.076-2.854l2.086-.197c-.131.597-.23 1.199-.172 1.644.059.457.211.77.656.77.616 0 .967-.656 1.178-1.567.098-.461 0-1.002-.211-1.558-.06-.139-.117-.291-.176-.432-.06-.131-.115-.281-.175-.422-.139-.289-.289-.593-.44-.925-.158-.331-.316-.657-.469-1.026a6.766 6.766 0 0 1-.558-2.203c-.057-.369 0-.75.078-1.137.158-.773.5-1.605 1.1-2.239.562-.616 1.336-1.065 2.32-1.083 1.291-.023 1.891.504 2.143 1.258.23.773.156 1.722-.02 2.513zM153.971 35.257c0 .877.711 1.582 1.582 1.582h13.039a1.582 1.582 0 1 0 0-3.164h-13.039c-.871 0-1.582.709-1.582 1.582M180.948 42.505a5.655 5.655 0 0 0 5.643-5.643 5.648 5.648 0 0 0-5.643-5.632 5.64 5.64 0 0 0-5.643 5.632 5.646 5.646 0 0 0 5.643 5.643m-8.807-5.643c0-4.857 3.94-8.796 8.807-8.796 4.861 0 8.807 3.931 8.807 8.796a8.809 8.809 0 0 1-8.807 8.807 8.805 8.805 0 0 1-8.807-8.807M143.196 42.505a5.647 5.647 0 0 0 5.643-5.643 5.64 5.64 0 0 0-11.282 0 5.649 5.649 0 0 0 5.639 5.643m-8.803-5.643c0-4.865 3.946-8.796 8.803-8.796 4.863 0 8.807 3.931 8.807 8.796a8.808 8.808 0 0 1-8.807 8.807c-4.857 0-8.803-3.943-8.803-8.807"/><path d="M197.178 29.444a12.402 12.402 0 0 0-1.428-2.238c-1.183-1.52-2.801-3.096-4.718-4.547L169.078 6.048c-2.293-1.737-5.363-3.206-8.582-4.29C157.276.681 153.94.001 151.061 0h-11.598c-1.027-.005-2.029.329-2.76 1.013-.746.669-1.148 1.671-1.146 2.665 0 .473.084.947.238 1.403l4.904 14.837c.061.161.077.293.077.395-.006.212-.055.317-.196.475-.14.152-.423.334-.865.429a16.048 16.048 0 0 0-12.223 12.44H4.16a1.588 1.588 0 0 0 0 3.174h124.506a1.585 1.585 0 0 0 1.75-1.399c.604-5.494 4.688-9.951 9.989-11.126.945-.206 1.808-.641 2.468-1.331a3.858 3.858 0 0 0 1.067-2.662c0-.463-.08-.937-.235-1.394l-4.904-14.83a1.304 1.304 0 0 1-.08-.411c.012-.214.062-.267.123-.342.074-.066.232-.171.619-.173h11.598c2.371-.004 5.471.593 8.424 1.595 2.964.992 5.8 2.38 7.683 3.807l21.959 16.611c2.574 1.934 4.53 4.207 5.203 5.633.223.458.293.816.287.912l-1.582 2.744a1.585 1.585 0 0 0 1.372 2.374c.546 0 1.074-.282 1.369-.791l1.621-2.807a2.995 2.995 0 0 0 .385-1.508c-.006-.818-.249-1.547-.604-2.289"/></g></svg>