<svg xmlns="http://www.w3.org/2000/svg" width="212.599" height="92.72"><g fill="#999"><path d="M8.538 82.316h1.146V90.5H8.538v-3.778H4.536V90.5H3.39v-8.183h1.146v3.412h4.002v-3.413zM11.224 91.646c.087.04.199.077.338.112.137.037.273.053.407.053.433 0 .772-.097 1.016-.29.244-.192.464-.505.662-.938a33.632 33.632 0 0 1-1.388-3.005 26.314 26.314 0 0 1-1.069-3.218h1.181c.087.354.192.736.313 1.146a30.422 30.422 0 0 0 .891 2.563c.173.433.355.85.543 1.251.299-.827.559-1.645.78-2.457.22-.81.429-1.645.625-2.502h1.134a46.369 46.369 0 0 1-.945 3.335 33.899 33.899 0 0 1-1.122 2.994c-.157.354-.321.66-.49.916a2.733 2.733 0 0 1-.562.631 2.02 2.02 0 0 1-.69.366 2.94 2.94 0 0 1-1.14.101 2.992 2.992 0 0 1-.526-.113 1.014 1.014 0 0 1-.159-.058l.201-.887zM21.84 89.886a3.01 3.01 0 0 1-.549.242 2.78 2.78 0 0 1-.952.148c-.369 0-.718-.06-1.044-.177a2.274 2.274 0 0 1-.857-.55 2.654 2.654 0 0 1-.578-.926c-.142-.37-.213-.811-.213-1.323 0-.448.067-.859.201-1.233s.329-.697.584-.969a2.69 2.69 0 0 1 .939-.638 3.243 3.243 0 0 1 1.251-.229c.512 0 .958.037 1.34.111.382.076.703.144.963.207v5.479c0 .946-.244 1.63-.732 2.055-.488.425-1.228.638-2.22.638-.386 0-.75-.031-1.092-.095a6.194 6.194 0 0 1-.892-.223l.201-.957c.22.087.49.164.809.229.319.068.651.101.998.101.653 0 1.123-.13 1.411-.39.287-.26.431-.672.431-1.24v-.26zm-.011-4.558a3.433 3.433 0 0 0-.444-.089 5.268 5.268 0 0 0-.749-.041c-.591 0-1.045.193-1.364.578s-.478.898-.478 1.535c0 .355.045.658.135.91.091.251.213.46.367.625.153.166.331.288.53.366.202.078.408.118.62.118.291 0 .559-.041.803-.124.244-.083.437-.179.579-.289v-3.589zM25.599 83.25c-.197 0-.364-.065-.501-.195s-.207-.305-.207-.526a.687.687 0 0 1 .708-.719c.196 0 .364.064.502.194s.207.306.207.525a.688.688 0 0 1-.709.721zm.555 7.25h-1.099v-6.14h1.099v6.14zM27.94 87.441c0-.543.079-1.018.236-1.422.157-.406.366-.743.626-1.01a2.56 2.56 0 0 1 .897-.603 2.799 2.799 0 0 1 1.039-.201c.827 0 1.46.259 1.901.774.441.516.662 1.301.662 2.355v.183c0 .075-.005.144-.012.206h-4.204c.047.639.232 1.123.555 1.453.323.331.827.497 1.512.497.386 0 .71-.034.974-.101s.462-.131.597-.195l.154.921c-.134.071-.368.147-.703.225a5.043 5.043 0 0 1-1.14.118c-.536 0-.998-.081-1.388-.242a2.587 2.587 0 0 1-.962-.668 2.736 2.736 0 0 1-.562-1.009 4.296 4.296 0 0 1-.182-1.281zm4.216-.602c.007-.496-.116-.903-.372-1.222-.256-.318-.609-.478-1.058-.478-.251 0-.474.049-.666.148a1.535 1.535 0 0 0-.49.384 1.753 1.753 0 0 0-.313.542 2.703 2.703 0 0 0-.147.625h3.046zM35.11 84.536c.252-.063.587-.13 1.004-.201s.897-.105 1.441-.105c.488 0 .893.068 1.217.206.322.138.58.331.773.579.194.248.328.544.408.891.078.347.118.729.118 1.146V90.5h-1.098v-3.212c0-.377-.026-.7-.077-.967a1.638 1.638 0 0 0-.254-.649.997.997 0 0 0-.473-.361 2.075 2.075 0 0 0-.732-.112 6.585 6.585 0 0 0-.726.041 3.92 3.92 0 0 0-.307.041l-.194.036V90.5h-1.1v-5.964zM41.804 87.441c0-.543.078-1.018.236-1.422.157-.406.366-.743.625-1.01a2.56 2.56 0 0 1 .897-.603 2.806 2.806 0 0 1 1.039-.201c.827 0 1.461.259 1.902.774.441.516.661 1.301.661 2.355v.183c0 .075-.004.144-.011.206H42.95c.046.639.231 1.123.555 1.453.322.331.826.497 1.512.497.385 0 .71-.034.974-.101.263-.067.462-.131.597-.195l.153.921c-.135.071-.368.147-.703.225s-.715.118-1.14.118c-.535 0-.997-.081-1.388-.242a2.595 2.595 0 0 1-.962-.668 2.72 2.72 0 0 1-.561-1.009 4.264 4.264 0 0 1-.183-1.281zm4.216-.602c.007-.496-.117-.903-.373-1.222-.256-.318-.609-.478-1.057-.478-.251 0-.474.049-.667.148a1.546 1.546 0 0 0-.49.384 1.73 1.73 0 0 0-.312.542 2.604 2.604 0 0 0-.147.625h3.046zM53.448 89.685c1.196 0 1.794-.409 1.794-1.228 0-.252-.052-.467-.159-.645s-.25-.331-.432-.46a3.018 3.018 0 0 0-.62-.336 20.001 20.001 0 0 0-.738-.284 7.473 7.473 0 0 1-.85-.348 2.938 2.938 0 0 1-.697-.46 1.94 1.94 0 0 1-.467-.632c-.114-.243-.171-.539-.171-.885 0-.717.244-1.275.732-1.677.487-.401 1.161-.603 2.019-.603.496 0 .947.053 1.353.161.405.105.703.222.891.348l-.365.932c-.165-.102-.412-.203-.738-.301a3.946 3.946 0 0 0-1.14-.148c-.221 0-.425.024-.614.072a1.576 1.576 0 0 0-.495.212 1.07 1.07 0 0 0-.338.361 1.028 1.028 0 0 0-.124.513c0 .221.043.406.13.555.086.15.209.282.366.396.157.114.34.219.549.313.208.095.438.188.691.283.354.142.68.285.974.426.295.142.55.311.768.508.217.197.384.431.502.703.118.271.178.6.178.985 0 .716-.262 1.268-.786 1.654-.524.385-1.262.578-2.214.578-.323 0-.62-.022-.893-.065a6.617 6.617 0 0 1-.726-.154 4.29 4.29 0 0 1-.909-.359l.343-.946c.181.103.457.217.826.343.371.126.824.188 1.36.188zM57.813 87.441c0-.543.078-1.018.236-1.422.157-.406.366-.743.625-1.01s.559-.468.898-.603a2.799 2.799 0 0 1 1.039-.201c.827 0 1.46.259 1.901.774.441.516.662 1.301.662 2.355v.183c0 .075-.005.144-.012.206h-4.204c.047.639.231 1.123.555 1.453.322.331.826.497 1.512.497.385 0 .71-.034.974-.101s.462-.131.597-.195l.153.921c-.134.071-.368.147-.702.225a5.043 5.043 0 0 1-1.14.118c-.535 0-.998-.081-1.388-.242a2.595 2.595 0 0 1-.962-.668 2.72 2.72 0 0 1-.561-1.009 4.264 4.264 0 0 1-.183-1.281zm4.216-.602c.007-.496-.116-.903-.372-1.222-.257-.318-.608-.478-1.058-.478-.251 0-.474.049-.667.148a1.531 1.531 0 0 0-.489.384 1.714 1.714 0 0 0-.313.542 2.705 2.705 0 0 0-.148.625h3.047zM67.251 84.23a4.592 4.592 0 0 1 .684.065c.118.02.227.04.324.059.098.021.171.037.219.053l-.189.957c-.086-.031-.229-.069-.431-.113s-.458-.064-.774-.064c-.205 0-.407.021-.608.064s-.333.074-.395.089v5.16h-1.099v-5.88c.26-.095.582-.183.969-.266.387-.083.82-.124 1.3-.124zM75.007 84.36a31.371 31.371 0 0 1-1.081 3.307c-.414 1.055-.813 2-1.199 2.833h-.992a51.07 51.07 0 0 1-1.198-2.833 30.914 30.914 0 0 1-1.08-3.307h1.18c.094.385.207.797.337 1.234a38.44 38.44 0 0 0 .855 2.544c.15.402.292.759.425 1.075.134-.315.275-.672.426-1.075.149-.402.297-.816.442-1.245.146-.43.284-.863.414-1.299.13-.437.242-.849.336-1.234h1.135zM76.975 83.25a.688.688 0 0 1-.709-.721c0-.22.068-.395.207-.525a.704.704 0 0 1 .502-.194c.196 0 .364.064.502.194s.206.306.206.525c0 .221-.068.396-.206.526a.713.713 0 0 1-.502.195zm.555 7.25h-1.099v-6.14h1.099v6.14zM82.321 90.642c-.496 0-.931-.079-1.305-.235a2.64 2.64 0 0 1-.945-.662 2.764 2.764 0 0 1-.572-1.009 4.194 4.194 0 0 1-.188-1.293c0-.472.068-.905.206-1.299.138-.394.333-.734.585-1.022.251-.287.561-.512.926-.672a3.009 3.009 0 0 1 1.222-.243c.276 0 .551.024.828.071.275.048.539.123.791.225l-.247.932a2.63 2.63 0 0 0-.574-.188 3.24 3.24 0 0 0-.69-.071c-.614 0-1.084.194-1.412.579-.326.385-.49.949-.49 1.688 0 .331.038.634.113.91.074.275.192.512.354.708.161.197.368.348.619.454.252.107.56.16.921.16.291 0 .555-.028.791-.083.237-.054.421-.114.556-.177l.154.921c-.063.04-.154.077-.272.113a3.739 3.739 0 0 1-.401.094 7.888 7.888 0 0 1-.478.071 4.987 4.987 0 0 1-.492.028zM84.983 87.441c0-.543.078-1.018.236-1.422.157-.406.366-.743.626-1.01.259-.268.559-.468.898-.603a2.799 2.799 0 0 1 1.039-.201c.827 0 1.46.259 1.901.774.441.516.662 1.301.662 2.355v.183c0 .075-.004.144-.012.206h-4.204c.047.639.231 1.123.555 1.453.322.331.826.497 1.512.497.385 0 .71-.034.974-.101s.462-.131.597-.195l.153.921c-.135.071-.368.147-.703.225a5.043 5.043 0 0 1-1.14.118c-.535 0-.997-.081-1.388-.242a2.595 2.595 0 0 1-.962-.668 2.72 2.72 0 0 1-.561-1.009 4.264 4.264 0 0 1-.183-1.281zm4.216-.602c.007-.496-.116-.903-.372-1.222-.257-.318-.609-.478-1.058-.478-.251 0-.474.049-.667.148a1.535 1.535 0 0 0-.49.384 1.714 1.714 0 0 0-.313.542 2.653 2.653 0 0 0-.147.625h3.047zM93.58 89.708c.448 0 .78-.059.997-.176.217-.119.325-.307.325-.567a.752.752 0 0 0-.319-.638c-.213-.158-.563-.335-1.051-.532a15.752 15.752 0 0 1-.679-.29 2.37 2.37 0 0 1-.562-.348 1.503 1.503 0 0 1-.378-.483 1.554 1.554 0 0 1-.141-.697c0-.543.201-.974.602-1.293.402-.318.948-.478 1.641-.478.173 0 .347.01.52.03.173.02.334.043.484.071.148.027.281.057.396.088.113.031.202.06.266.083l-.202.944a2.847 2.847 0 0 0-.555-.194 3.578 3.578 0 0 0-.91-.101c-.307 0-.575.061-.803.184a.608.608 0 0 0-.343.573c0 .134.027.251.078.354.051.102.13.194.236.277.106.083.238.16.396.23.156.071.346.146.566.225.291.109.551.218.779.324.229.106.423.23.585.373.161.141.285.312.372.513.086.2.13.447.13.738 0 .567-.211.996-.631 1.287-.423.292-1.022.437-1.801.437-.543 0-.969-.045-1.276-.136a6.212 6.212 0 0 1-.625-.207l.2-.944c.126.048.328.118.603.212.277.095.644.141 1.1.141z"/><g><path d="M10.431 75.755c-1.557 0-2.976-.255-4.255-.768a9.03 9.03 0 0 1-3.295-2.24c-.917-.98-1.627-2.191-2.128-3.632C.251 67.677 0 66.029 0 64.174c0-1.856.283-3.503.848-4.943.565-1.44 1.328-2.65 2.288-3.632a9.692 9.692 0 0 1 3.36-2.239 10.923 10.923 0 0 1 4.095-.769c.917 0 1.743.064 2.479.192s1.375.278 1.92.448c.543.171.986.341 1.328.512.341.171.576.299.704.384l-.896 2.559a5.123 5.123 0 0 0-.832-.416 17.42 17.42 0 0 0-1.232-.448 11.226 11.226 0 0 0-1.504-.368 9.45 9.45 0 0 0-1.647-.144c-1.174 0-2.229.203-3.168.608a6.561 6.561 0 0 0-2.4 1.76c-.661.768-1.167 1.7-1.52 2.799-.352 1.098-.527 2.33-.527 3.695 0 1.322.154 2.528.463 3.615.309 1.088.773 2.021 1.392 2.8a6.255 6.255 0 0 0 2.32 1.808c.928.427 2.01.639 3.248.639 1.429 0 2.612-.148 3.551-.447.938-.298 1.643-.565 2.112-.8l.8 2.559c-.149.107-.416.24-.8.4a10.78 10.78 0 0 1-1.44.464 18.357 18.357 0 0 1-4.511.545zM18.912 75.276V50.96l2.976-.512v8.51a10.069 10.069 0 0 1 1.775-.496 10.22 10.22 0 0 1 1.872-.176c1.322 0 2.42.186 3.295.56.875.373 1.573.896 2.096 1.567.521.672.89 1.477 1.104 2.416.213.939.319 1.973.319 3.104v9.343h-2.976v-8.703c0-1.024-.069-1.898-.208-2.624-.139-.725-.368-1.312-.688-1.759a2.735 2.735 0 0 0-1.28-.977c-.534-.203-1.195-.304-1.983-.304-.32 0-.652.022-.993.065-.341.042-.667.091-.976.143-.31.054-.587.112-.832.177a4.81 4.81 0 0 0-.527.16v13.822h-2.974zM34.625 66.989c0-1.472.212-2.757.639-3.855.427-1.098.992-2.01 1.696-2.736a6.873 6.873 0 0 1 2.432-1.631 7.588 7.588 0 0 1 2.815-.544c2.24 0 3.957.699 5.152 2.095 1.194 1.397 1.792 3.525 1.792 6.384v.496c0 .203-.011.39-.032.56h-11.39c.127 1.728.629 3.04 1.504 3.936.874.896 2.239 1.343 4.095 1.343 1.045 0 1.925-.09 2.64-.271.714-.181 1.252-.357 1.615-.528l.416 2.496c-.363.193-.997.395-1.904.608-.906.213-1.935.32-3.087.32-1.451 0-2.704-.219-3.759-.656-1.056-.437-1.925-1.04-2.607-1.808-.683-.769-1.189-1.68-1.52-2.736-.332-1.057-.497-2.214-.497-3.473zm11.422-1.632c.021-1.344-.315-2.448-1.008-3.312-.693-.863-1.648-1.296-2.864-1.296-.683 0-1.285.133-1.808.4a4.262 4.262 0 0 0-1.327 1.041 4.762 4.762 0 0 0-.848 1.471 7.25 7.25 0 0 0-.4 1.696h8.255zM55.53 73.132c1.216 0 2.117-.16 2.704-.48.586-.32.88-.832.88-1.535 0-.726-.288-1.301-.864-1.728-.577-.427-1.525-.906-2.848-1.44a41.396 41.396 0 0 1-1.84-.784 6.446 6.446 0 0 1-1.519-.944 4.094 4.094 0 0 1-1.024-1.312c-.256-.511-.384-1.14-.384-1.888 0-1.471.543-2.639 1.631-3.503 1.088-.863 2.57-1.295 4.447-1.295.469 0 .938.027 1.408.08.469.054.907.118 1.312.192.405.075.762.156 1.072.24.309.085.549.16.72.224l-.544 2.56c-.319-.17-.821-.346-1.504-.527-.683-.182-1.504-.273-2.463-.273-.832 0-1.557.166-2.175.496-.619.332-.928.848-.928 1.552 0 .363.069.683.208.959.139.277.352.528.641.752.288.225.644.432 1.071.625.427.192.938.394 1.536.607a32.01 32.01 0 0 1 2.111.88 6.618 6.618 0 0 1 1.584 1.008c.437.384.772.848 1.008 1.392.234.543.352 1.21.352 2 0 1.535-.571 2.699-1.712 3.487-1.141.789-2.767 1.184-4.879 1.184-1.472 0-2.624-.123-3.456-.368-.832-.245-1.397-.432-1.696-.561l.544-2.559c.341.128.885.32 1.632.576.746.255 1.737.383 2.975.383zM64.226 75.276V50.96l2.976-.512v8.51a10.069 10.069 0 0 1 1.775-.496 10.22 10.22 0 0 1 1.872-.176c1.322 0 2.42.186 3.295.56.875.373 1.573.896 2.096 1.567.521.672.89 1.477 1.104 2.416.213.939.319 1.973.319 3.104v9.343h-2.976v-8.703c0-1.024-.069-1.898-.208-2.624-.139-.725-.368-1.312-.688-1.759a2.735 2.735 0 0 0-1.28-.977c-.534-.203-1.195-.304-1.983-.304-.32 0-.651.022-.993.065-.341.042-.667.091-.976.143-.31.054-.587.112-.832.177a4.81 4.81 0 0 0-.527.16v13.822h-2.974zM82.242 55.631c-.534 0-.987-.176-1.36-.528-.374-.352-.56-.827-.56-1.423 0-.598.186-1.072.56-1.424a1.904 1.904 0 0 1 1.36-.528c.533 0 .986.176 1.36.528.373.352.56.826.56 1.424 0 .597-.187 1.072-.56 1.423a1.91 1.91 0 0 1-1.36.528zm1.504 19.645H80.77V58.639h2.976v16.637zM93.245 58.287c.256 0 .549.015.88.047s.656.075.977.128c.319.053.613.106.879.16.266.054.464.102.592.144l-.512 2.592c-.235-.085-.624-.187-1.167-.304-.544-.117-1.244-.176-2.096-.176-.556 0-1.104.059-1.648.176-.544.118-.901.198-1.071.24v13.981h-2.976V59.342c.704-.255 1.579-.496 2.624-.72s2.217-.335 3.518-.335zM96.617 66.989c0-1.472.213-2.757.64-3.855.426-1.098.992-2.01 1.695-2.736a6.873 6.873 0 0 1 2.432-1.631 7.588 7.588 0 0 1 2.815-.544c2.24 0 3.957.699 5.151 2.095 1.195 1.397 1.792 3.525 1.792 6.384v.496c0 .203-.011.39-.032.56H99.72c.127 1.728.629 3.04 1.504 3.936.874.896 2.239 1.343 4.095 1.343 1.045 0 1.924-.09 2.64-.271.714-.181 1.252-.357 1.615-.528l.416 2.496c-.363.193-.998.395-1.904.608s-1.935.32-3.087.32c-1.451 0-2.704-.219-3.759-.656-1.057-.437-1.926-1.04-2.608-1.808-.683-.769-1.189-1.68-1.52-2.736-.33-1.057-.495-2.214-.495-3.473zm11.423-1.632c.02-1.344-.316-2.448-1.009-3.312-.693-.863-1.648-1.296-2.864-1.296-.683 0-1.285.133-1.808.4a4.262 4.262 0 0 0-1.327 1.041 4.784 4.784 0 0 0-.849 1.471 7.25 7.25 0 0 0-.4 1.696h8.257zM129.347 75.755c-1.557 0-2.975-.255-4.255-.768a9.058 9.058 0 0 1-3.296-2.24c-.917-.98-1.627-2.191-2.127-3.632-.502-1.439-.752-3.087-.752-4.942 0-1.856.282-3.503.848-4.943.564-1.44 1.328-2.65 2.287-3.632a9.701 9.701 0 0 1 3.36-2.239 10.92 10.92 0 0 1 4.095-.769 14.554 14.554 0 0 1 4.399.64c.544.171.986.341 1.328.512.341.171.575.299.704.384l-.896 2.559a5.123 5.123 0 0 0-.832-.416 17.383 17.383 0 0 0-1.231-.448c-.459-.149-.96-.271-1.504-.368a9.46 9.46 0 0 0-1.647-.144c-1.174 0-2.229.203-3.168.608a6.55 6.55 0 0 0-2.399 1.76c-.661.768-1.167 1.7-1.521 2.799-.352 1.098-.527 2.33-.527 3.695 0 1.322.154 2.528.465 3.615.309 1.088.772 2.021 1.391 2.8.619.779 1.393 1.381 2.32 1.808s2.01.639 3.248.639c1.428 0 2.612-.148 3.551-.447.938-.298 1.643-.565 2.111-.8l.801 2.559c-.15.107-.417.24-.801.4a10.76 10.76 0 0 1-1.439.464c-.576.148-1.248.277-2.016.384-.769.109-1.601.162-2.497.162zM152.159 66.957c0 1.323-.192 2.518-.576 3.583-.385 1.066-.923 1.983-1.616 2.752a7.108 7.108 0 0 1-2.479 1.775c-.961.416-2.006.624-3.136.624-1.132 0-2.176-.208-3.136-.624s-1.787-1.008-2.479-1.775c-.693-.769-1.232-1.686-1.616-2.752-.384-1.066-.575-2.26-.575-3.583 0-1.3.191-2.49.575-3.567s.923-2 1.616-2.768c.692-.768 1.52-1.359 2.479-1.775s2.004-.624 3.136-.624c1.13 0 2.175.208 3.136.624a7.13 7.13 0 0 1 2.479 1.775c.693.769 1.231 1.691 1.616 2.768.384 1.077.576 2.267.576 3.567zm-3.103 0c0-1.877-.422-3.365-1.265-4.463-.843-1.099-1.989-1.648-3.438-1.648-1.451 0-2.598.549-3.44 1.648-.843 1.098-1.264 2.586-1.264 4.463 0 1.877.421 3.365 1.264 4.463.843 1.099 1.989 1.648 3.44 1.648 1.449 0 2.596-.549 3.438-1.648.843-1.098 1.265-2.586 1.265-4.463zM167.874 74.796c-.684.171-1.583.352-2.702.543-1.121.192-2.416.288-3.889.288-1.278 0-2.356-.187-3.231-.56-.875-.373-1.578-.901-2.111-1.583-.533-.682-.917-1.488-1.151-2.416-.235-.928-.353-1.957-.353-3.087v-9.342h2.977v8.702c0 2.027.318 3.477.959 4.352.641.875 1.717 1.312 3.232 1.312.319 0 .648-.01.99-.032.342-.021.661-.048.961-.08.299-.032.571-.065.816-.096a2.39 2.39 0 0 0 .527-.112V58.639h2.975v16.157zM171.23 59.118c.682-.17 1.588-.352 2.721-.543 1.128-.192 2.432-.288 3.902-.288 1.322 0 2.42.186 3.296.56.874.373 1.572.896 2.097 1.567.521.672.89 1.477 1.103 2.416.213.939.319 1.973.319 3.104v9.343h-2.976v-8.703c0-1.024-.069-1.898-.208-2.624-.139-.725-.367-1.312-.687-1.759a2.745 2.745 0 0 0-1.28-.977c-.534-.203-1.195-.304-1.983-.304-.319 0-.651.012-.993.032-.341.022-.666.049-.975.08-.31.032-.587.069-.832.112-.245.042-.423.075-.529.096v14.046h-2.975V59.118zM190.66 58.639h6.304v2.496h-6.304v7.678c0 .832.064 1.52.194 2.064.125.543.319.971.573 1.28.257.31.578.528.962.656.384.127.832.192 1.343.192.896 0 1.616-.102 2.159-.304.545-.203.923-.347 1.136-.433l.577 2.463c-.3.15-.822.336-1.567.561-.748.224-1.6.335-2.561.335-1.131 0-2.064-.144-2.8-.432-.735-.288-1.327-.72-1.775-1.295-.447-.577-.763-1.285-.943-2.128s-.272-1.818-.272-2.928V53.999l2.975-.512v5.152z"/><path d="M197.882 78.379c.235.106.539.208.913.304.37.096.74.145 1.103.145 1.173 0 2.09-.262 2.751-.785s1.258-1.371 1.792-2.543a90.996 90.996 0 0 1-3.759-8.143 70.495 70.495 0 0 1-2.896-8.718h3.199c.235.959.518 1.995.849 3.104a81.467 81.467 0 0 0 2.415 6.943c.47 1.173.962 2.304 1.473 3.391.812-2.24 1.515-4.458 2.111-6.655s1.162-4.458 1.696-6.783h3.07a128.13 128.13 0 0 1-2.558 9.039 92.523 92.523 0 0 1-3.041 8.11c-.426.96-.868 1.786-1.327 2.479-.46.693-.967 1.265-1.521 1.712a5.555 5.555 0 0 1-1.87.992c-.693.213-1.478.32-2.352.32-.235 0-.48-.016-.735-.048a8.886 8.886 0 0 1-.753-.127 7.562 7.562 0 0 1-.673-.177 3.173 3.173 0 0 1-.432-.16l.545-2.4z"/></g><path d="M194.373 13.842c-.004-.026-.004-.041-.022-.103-.059-.068.08-.003-.213-.343l.006-.005a.521.521 0 0 0-.053-.05.555.555 0 0 0-.225-.131.728.728 0 0 0-.315-.063l-.056.007a.743.743 0 0 0-.137.02c-.285.048-.288.099-.611.201-2.043.763-9.756 3.797-19.924 5.773a116.41 116.41 0 0 1-7.424-12.7 118.095 118.095 0 0 1-2.074-4.338c-.237-.518-.418-.921-.547-1.205-.064-.144-.117-.253-.161-.344a.793.793 0 0 0-.08-.14c-.017-.03-.032-.061-.084-.12-.083-.034-.052-.221-.629-.301-.601.08-.571.267-.651.301-.218.304-.2.357-.371.701-.92 2.02-4.226 9.593-9.998 18.146a117.077 117.077 0 0 1-14.092-3.688 125.683 125.683 0 0 1-4.557-1.603c-.543-.204-.971-.368-1.278-.481-.339-.106-.327-.16-.652-.208l.001-.002c-.033-.005-.08-.013-.138-.015l-.017-.002a.638.638 0 0 0-.303.057c-.027.011-.056.022-.084.036-.08.045-.146.096-.201.148a.587.587 0 0 0-.15.2.725.725 0 0 0-.094.337c-.003.053 0 .053-.003.057.058.484.107.421.228.805.795 2.128 4.059 10.402 6.02 21.208 1.513 6.109 4.108 11.657 9.424 14.03 1.713.815 3.728 1.246 5.828 1.246 3.774 0 7.844-1.404 11.079-4.424 3.219 3.015 7.292 4.423 11.073 4.423 2.102 0 4.111-.428 5.85-1.252 5.294-2.362 7.892-7.914 9.394-13.97 1.128-6.223 2.675-11.578 3.944-15.423.634-1.924 1.194-3.47 1.604-4.556.199-.544.362-.972.48-1.283.095-.314.148-.326.196-.589a.755.755 0 0 0 .029-.213v-.007-.001a.51.51 0 0 0-.012-.136zm-22.184 7.319c2.252 3.735 3.81 7.538 3.803 11.073 0 1.362-.226 2.688-.726 3.984-1.431 4.093-5.883 7.922-11.504 8.574 2.451-3.056 3.599-6.725 3.599-10.144 0-2.102-.429-4.116-1.258-5.853-.716-1.608-1.754-2.942-2.986-4.098 2.369-1.678 5.383-2.851 8.718-3.678v.001l.229-.044.125.185zm-20.63-.186l.196.037c3.354.829 6.382 2.004 8.757 3.687-1.236 1.16-2.28 2.5-3.003 4.119-.818 1.717-1.247 3.728-1.247 5.829 0 3.419 1.145 7.08 3.605 10.146-5.626-.651-10.077-4.478-11.501-8.551a10.971 10.971 0 0 1-.735-4.004c-.007-3.549 1.56-7.366 3.827-11.112.035-.052.066-.101.101-.151zm13.045 8.511c.722 1.507 1.105 3.284 1.105 5.162 0 3.341-1.238 6.967-3.897 9.862-2.669-2.906-3.9-6.525-3.9-9.864 0-1.874.389-3.651 1.096-5.138.645-1.467 1.619-2.697 2.807-3.768 1.18 1.066 2.151 2.29 2.789 3.746zm-2.801-26.692l.01-.021c1.308 2.876 4.404 9.448 9.262 16.744-3.44.887-6.683 2.152-9.26 4.077-2.575-1.923-5.822-3.188-9.27-4.076a118.254 118.254 0 0 0 7.154-12.328 122.407 122.407 0 0 0 2.104-4.396zm-16.205 45.733c-4.576-2.008-7.044-6.975-8.501-12.874-1.126-6.22-2.693-11.645-3.979-15.543-.645-1.95-1.217-3.52-1.627-4.619l-.051-.139c2.952 1.108 9.796 3.569 18.39 5.292-2.235 3.79-3.846 7.702-3.852 11.593 0 1.543.261 3.083.838 4.575 1.685 4.729 6.654 8.927 12.955 9.625-2.749 2.173-6.009 3.183-9.036 3.183-1.877-.001-3.654-.385-5.137-1.093zm40.919-12.825c-1.442 5.849-3.916 10.816-8.468 12.813-1.51.719-3.287 1.106-5.161 1.106-3.033 0-6.297-1.014-9.038-3.185 6.3-.695 11.275-4.893 12.967-9.645.567-1.476.827-3.015.827-4.558-.007-3.907-1.627-7.827-3.85-11.592a118.778 118.778 0 0 0 13.632-3.614 124.696 124.696 0 0 0 4.618-1.626l.143-.052c-1.193 3.172-3.95 10.842-5.67 20.353z"/></g></svg>