<svg xmlns="http://www.w3.org/2000/svg" width="170.079" height="68.751"><g fill="#999"><path d="M75.798 3.027v2.5c-1.131.122-2.262.243-3.393.361v8.649c-.892.093-1.784.185-2.676.275V6.163c-1.115.113-2.23.223-3.345.33v-2.5c3.139-.301 6.277-.627 9.414-.966zM89.923 1.458v11.149l-2.676.298V8.572l-4.173.467v4.333l-2.676.298V2.521l2.676-.298v4.316l4.173-.467V1.756l2.676-.298zM103.932 8.639v2.501c-2.734.261-5.47.542-8.204.834V.825A741.64 741.64 0 0 1 103.835 0v2.5c-1.811.173-3.621.355-5.432.543v1.832c1.418-.147 2.837-.291 4.255-.429v2.342c-1.418.138-2.837.282-4.255.429v1.975c1.843-.192 3.686-.377 5.529-.553zM52.672 60.803c-.27-.971-1.131-1.378-1.926-1.333-.797.045-1.258.468-1.258.915 0 .731 1.113.944 2.467 1.355 1.657.504 3.393 1.32 3.393 3.231 0 2.038-1.751 3.618-4.348 3.77-2.326.135-3.982-1.084-4.713-3.14.854-.264 1.708-.532 2.562-.804.287.829 1.083 1.633 2.263 1.564.955-.057 1.401-.532 1.401-1.074 0-.892-1.306-1.031-2.898-1.55-1.339-.437-2.883-1.102-2.883-3.062 0-1.736 1.752-3.385 4.173-3.525 2.134-.124 3.824 1.062 4.348 2.778-.862.296-1.721.587-2.581.875zM68.862 55.912v2.501c-1.131.113-2.262.223-3.394.33v8.648c-.892.084-1.783.166-2.675.245v-8.648c-1.116.1-2.231.195-3.347.286v-2.501c3.139-.256 6.278-.547 9.416-.861zM83.198 54.371v6.196c0 3.344-1.976 5.399-4.921 5.723-2.964.326-4.924-1.3-4.924-4.645v-6.196c.893-.095 1.785-.19 2.678-.287v6.133c0 1.911.78 2.655 2.246 2.494 1.464-.161 2.245-1.076 2.245-2.987v-6.133l2.676-.298zM93.721 53.202c3.187-.347 5.767 1.668 5.767 5.014 0 3.345-2.58 5.789-5.767 6.136a1612 1612 0 0 0-4.873.537V53.74c1.624-.182 3.249-.362 4.873-.538zm0 8.649c1.595-.173 2.979-1.435 2.979-3.346 0-1.912-1.385-2.976-2.979-2.803l-2.196.24v6.148l2.196-.239zM104.629 63.235V52.086c.893-.084 1.784-.166 2.677-.246v11.149c-.893.08-1.785.162-2.677.246zM118.232 50.789c3.201-.196 5.798 2.14 5.798 5.5 0 3.361-2.597 5.899-5.798 6.096-3.202.195-5.781-2.036-5.781-5.397s2.579-6.005 5.781-6.199zm0 8.951c1.816-.11 3.01-1.458 3.01-3.322 0-1.879-1.193-3.095-3.01-2.985-1.801.11-2.994 1.47-2.994 3.349 0 1.864 1.194 3.068 2.994 2.958z"/><g><path d="M12.956 22.077c7.918 1.026 14.331 6.857 14.331 15.187 0 8.296-6.413 13.55-14.331 12.524A143.99 143.99 0 0 1 .844 47.701V19.99a143.92 143.92 0 0 0 12.112 2.087zm0 21.495c3.959.517 7.403-1.992 7.403-6.74 0-4.752-3.444-8.022-7.403-8.539a148.597 148.597 0 0 1-5.462-.81v15.279c1.82.305 3.641.574 5.462.81zM54.444 46.144c-3.655.25-7.31.444-10.965.56l-1.584 4.401c-2.388.061-4.776.088-7.164.074a4765.267 4765.267 0 0 0 11.083-27.915c2.098-.085 4.196-.194 6.294-.323a7192.63 7192.63 0 0 0 11.084 26.86c-2.388.215-4.777.412-7.165.586l-1.583-4.243zm-2.138-5.68c-.66-1.753-1.319-3.509-1.979-5.266-.593-1.551-1.306-4.008-1.345-4.006a.536.536 0 0 0-.04.002c-.04.002-.751 2.533-1.345 4.145l-1.979 5.469a299.39 299.39 0 0 0 6.688-.344zM98.425 18.34v27.711c-2.085.216-4.171.441-6.256.669-1.888-2.366-3.774-4.729-5.662-7.091-2.532-3.2-6.253-8.049-6.293-8.045l-.04.004c-.038.004.04 4.271.04 10.328v6.137c-2.216.246-4.433.489-6.649.724V21.066c2.085-.221 4.169-.449 6.254-.68 1.966 2.421 3.933 4.839 5.899 7.258 1.78 2.174 6.016 7.683 6.055 7.68l.039-.004c.041-.005-.039-4.906-.039-9.933v-6.334c2.217-.243 4.434-.483 6.652-.713zM130.537 24.754c-1.267-1.565-3.641-2.5-5.818-2.413-4.592.183-7.442 3.678-7.442 8.223 0 4.794 3.128 7.544 7.442 7.375 2.653-.105 5.186-1.501 6.334-3.415 2.243.55 4.485 1.132 6.729 1.751-2.295 4.865-7.244 8.081-13.062 8.314-7.957.314-14.37-5.151-14.37-13.517 0-8.341 6.413-14.988 14.37-15.302 5.463-.218 10.133 2.722 12.588 7.197a247.673 247.673 0 0 0-6.771 1.787zM169.473 41.164v6.216c-6.795-1.491-13.591-2.438-20.386-2.972V16.697c6.717.528 13.433 1.459 20.149 2.92v6.216c-4.5-.979-9-1.72-13.5-2.261v4.552c3.523.424 7.047.97 10.57 1.657v5.818a146.902 146.902 0 0 0-10.57-1.657v4.909c4.579.551 9.158 1.309 13.737 2.313zM33.589 31.561l1.169 3.605c1.259.007 2.519.002 3.778-.012a414.665 414.665 0 0 1-3.056 2.234l1.167 3.594a376.206 376.206 0 0 1-3.058-2.233 382.49 382.49 0 0 1-3.06 2.165l1.169-3.567a388.557 388.557 0 0 1-3.058-2.305c1.26.045 2.52.078 3.779.099l1.17-3.58zM65.769 29.955l1.168 3.483c1.26-.122 2.52-.248 3.779-.377-1.02.845-2.039 1.687-3.058 2.527l1.169 3.479c-1.02-.639-2.039-1.28-3.059-1.924-1.02.837-2.04 1.671-3.06 2.503l1.167-3.7a866.382 866.382 0 0 1-3.057-1.95 482.19 482.19 0 0 0 3.781-.336c.392-1.235.781-2.47 1.17-3.705zM104.385 25.85l1.17 3.486c1.26-.117 2.519-.229 3.778-.335-1.02.826-2.038 1.656-3.058 2.489l1.168 3.49c-1.02-.65-2.039-1.297-3.059-1.941-1.02.837-2.04 1.677-3.06 2.519l1.17-3.71c-1.02-.64-2.039-1.277-3.059-1.913 1.26-.129 2.521-.255 3.78-.376l1.17-3.709zM142.47 24.405l1.169 3.647c1.26.06 2.519.133 3.778.219a317.82 317.82 0 0 0-3.057 2.036c.39 1.218.778 2.438 1.168 3.659-1.02-.8-2.039-1.591-3.059-2.373-1.02.698-2.04 1.405-3.06 2.12l1.17-3.562a380.355 380.355 0 0 0-3.059-2.292c1.26.021 2.52.052 3.779.096l1.171-3.55z"/></g><path d="M166.5 59.829c-.466-.091-.842-.541-.842-1.004 0-.468.376-.771.842-.679.911.179 1.823.368 2.734.566.466.101.845.561.845 1.028 0 .464-.379.756-.845.655a139.66 139.66 0 0 0-2.734-.566zm-6.136-1.066c-.468-.071-.843-.503-.843-.967 0-.468.375-.788.843-.716 1.022.155 2.045.321 3.067.499.465.081.844.523.844.991 0 .464-.379.773-.844.693a134.976 134.976 0 0 0-3.067-.5zm-6.137-.803a.962.962 0 0 1-.842-.933c0-.468.375-.803.842-.751 1.023.113 2.046.236 3.069.37a.991.991 0 0 1 .842.954c0 .464-.379.79-.842.729a161.37 161.37 0 0 0-3.069-.369zm-6.136-.56a.918.918 0 0 1-.843-.901c0-.468.375-.817.843-.783 1.022.074 2.045.158 3.067.251a.944.944 0 0 1 .842.921.756.756 0 0 1-.842.763 166.69 166.69 0 0 0-3.067-.251zm-6.138-.34a.881.881 0 0 1-.842-.872c0-.468.377-.829.842-.812 1.022.04 2.046.087 3.068.144a.903.903 0 0 1 .843.891.788.788 0 0 1-.843.793 184.665 184.665 0 0 0-3.068-.144zm-6.139-.14a.849.849 0 0 1-.841-.847c0-.468.376-.841.841-.837 1.023.008 2.047.023 3.07.046a.867.867 0 0 1 .842.863.82.82 0 0 1-.842.821 209.306 209.306 0 0 0-3.07-.046zm-6.135.038a.823.823 0 0 1-.843-.824c0-.467.379-.851.843-.859 1.022-.02 2.046-.033 3.068-.04a.836.836 0 0 1 .843.838.849.849 0 0 1-.843.846c-1.022.005-2.046.019-3.068.039zM37.666 64.243a.837.837 0 0 1-.844-.836c0-.466.378-.846.844-.85.911-.007 1.822-.02 2.732-.038a.825.825 0 0 1 .845.827c0 .463-.378.85-.845.858-.91.02-1.821.032-2.732.039zm-6.136-.039a.869.869 0 0 1-.847-.861c0-.466.379-.835.847-.825 1.021.021 2.043.035 3.065.042a.85.85 0 0 1 .845.848.84.84 0 0 1-.845.837 195.932 195.932 0 0 1-3.065-.041zm-6.137-.226a.903.903 0 0 1-.845-.888c0-.466.379-.823.845-.798 1.023.055 2.045.1 3.068.138a.882.882 0 0 1 .841.874.809.809 0 0 1-.841.812 196.695 196.695 0 0 1-3.068-.138zm-6.138-.436a.945.945 0 0 1-.845-.918.76.76 0 0 1 .845-.768c1.023.091 2.046.173 3.069.245a.92.92 0 0 1 .842.902.777.777 0 0 1-.842.783 158.474 158.474 0 0 1-3.069-.244zm-6.136-.666a.987.987 0 0 1-.842-.951c0-.466.374-.794.842-.734 1.022.131 2.045.252 3.068.363.463.05.841.468.841.934a.744.744 0 0 1-.841.752 153.443 153.443 0 0 1-3.068-.364zm-6.138-.917c-.466-.08-.845-.525-.845-.988 0-.466.379-.777.845-.697 1.022.175 2.045.338 3.068.491.463.069.842.502.842.968 0 .463-.379.787-.842.717a147.064 147.064 0 0 1-3.068-.491zM.844 60.768c-.466-.102-.842-.564-.842-1.027 0-.466.375-.76.842-.659 1.023.222 2.046.433 3.069.631.463.09.841.54.841 1.005 0 .463-.378.77-.841.68a133.609 133.609 0 0 1-3.069-.63zM57.975 11.148a.77.77 0 0 1-.843-.778c0-.467.377-.874.843-.91.842-.066 1.683-.134 2.525-.205a.765.765 0 0 1 .843.774.939.939 0 0 1-.843.915c-.842.07-1.684.139-2.525.204zm-5.715.402a.783.783 0 0 1-.841-.792c0-.467.375-.868.841-.897.953-.059 1.906-.123 2.859-.189a.776.776 0 0 1 .843.785.921.921 0 0 1-.843.903c-.953.068-1.906.131-2.859.19zm-5.712.302a.802.802 0 0 1-.843-.808.89.89 0 0 1 .843-.881c.953-.041 1.906-.087 2.858-.138a.794.794 0 0 1 .843.8c0 .464-.38.864-.843.889-.952.051-1.906.097-2.858.138zm-5.712.186a.823.823 0 0 1-.843-.826c0-.467.377-.853.843-.862.952-.02 1.904-.046 2.855-.077a.812.812 0 0 1 .843.817.88.88 0 0 1-.843.872c-.951.03-1.903.056-2.855.076zm-5.712.051a.85.85 0 0 1-.846-.848.84.84 0 0 1 .846-.841c.951.004 1.903.001 2.854-.008a.835.835 0 0 1 .843.836.855.855 0 0 1-.843.852c-.952.01-1.903.013-2.854.009zm-5.715-.1a.878.878 0 0 1-.843-.872.81.81 0 0 1 .843-.817c.952.03 1.904.054 2.855.07a.863.863 0 0 1 .846.858.83.83 0 0 1-.846.83 194.58 194.58 0 0 1-2.855-.069zm-5.714-.269a.913.913 0 0 1-.843-.898c0-.467.377-.82.843-.791.952.06 1.904.112 2.855.157a.891.891 0 0 1 .843.883.798.798 0 0 1-.843.805c-.951-.044-1.904-.096-2.855-.156zm-5.715-.456a.951.951 0 0 1-.842-.926.75.75 0 0 1 .842-.762c.953.093 1.906.177 2.859.252a.93.93 0 0 1 .843.911.77.77 0 0 1-.843.778 163.01 163.01 0 0 1-2.859-.253zm-5.712-.659a1 1 0 0 1-.843-.958c0-.467.378-.792.843-.73.953.128 1.906.247 2.859.356a.97.97 0 0 1 .841.94.74.74 0 0 1-.841.749c-.954-.11-1.906-.229-2.859-.357zm-5.711-.878c-.467-.082-.844-.529-.844-.993 0-.467.377-.777.844-.696.951.166 1.903.322 2.855.468.462.071.843.506.843.973 0 .464-.38.787-.843.716-.952-.147-1.904-.303-2.855-.468zM.842 8.608C.375 8.507 0 8.043 0 7.58c0-.467.375-.761.842-.66.952.207 1.904.403 2.855.589.465.091.844.541.844 1.008 0 .464-.378.771-.843.681-.952-.186-1.905-.383-2.856-.59zM166.713 7.71c-.466-.092-.845-.542-.845-1.006 0-.468.379-.771.845-.678.841.167 1.681.341 2.521.524.466.102.845.562.845 1.029 0 .464-.379.756-.845.655-.84-.183-1.68-.358-2.521-.524zm-5.715-1.01c-.468-.073-.843-.507-.843-.971 0-.468.375-.787.843-.713.952.148 1.903.307 2.855.475.463.082.847.527.847.995 0 .464-.384.771-.847.689-.952-.169-1.903-.327-2.855-.475zm-5.713-.781a.97.97 0 0 1-.843-.938c0-.468.376-.801.843-.747.952.112 1.904.232 2.856.362a1 1 0 0 1 .843.96c0 .463-.379.788-.843.724-.952-.128-1.904-.249-2.856-.361zm-5.713-.566a.932.932 0 0 1-.847-.909c0-.468.379-.814.847-.776a171.9 171.9 0 0 1 2.855.258.954.954 0 0 1 .844.928.75.75 0 0 1-.844.756 182.25 182.25 0 0 0-2.855-.257zm-5.716-.371a.891.891 0 0 1-.842-.881c0-.468.376-.826.842-.804.952.046 1.905.101 2.857.162.466.03.845.432.845.899a.78.78 0 0 1-.845.785c-.951-.06-1.904-.115-2.857-.161zm-5.71-.192a.86.86 0 0 1-.843-.856c0-.468.375-.838.843-.829.952.018 1.903.043 2.855.075a.88.88 0 0 1 .847.873.81.81 0 0 1-.847.812c-.952-.032-1.903-.057-2.855-.075zm-5.713-.031a.834.834 0 0 1-.844-.834.85.85 0 0 1 .844-.851 226.42 226.42 0 0 1 2.855-.003.849.849 0 0 1 .843.849.838.838 0 0 1-.843.836c-.952-.006-1.903-.005-2.855.003zm-5.716.113a.812.812 0 0 1-.844-.814c0-.468.379-.856.844-.871.953-.03 1.905-.054 2.858-.073a.824.824 0 0 1 .844.828.863.863 0 0 1-.844.857c-.953.018-1.905.043-2.858.073zm-5.713.239a.79.79 0 0 1-.842-.797c0-.468.375-.863.842-.888.952-.049 1.905-.094 2.857-.134a.802.802 0 0 1 .844.809.888.888 0 0 1-.844.876c-.952.04-1.905.085-2.857.134zm-5.712.348a.774.774 0 0 1-.843-.782c0-.468.376-.87.843-.902.952-.066 1.903-.128 2.855-.187a.785.785 0 0 1 .843.792.908.908 0 0 1-.843.892c-.952.059-1.903.121-2.855.187zm-5.712.44a.762.762 0 0 1-.844-.77c0-.468.375-.875.844-.915.952-.08 1.903-.157 2.855-.23a.77.77 0 0 1 .843.779c0 .464-.379.87-.843.906-.952.073-1.903.15-2.855.23z"/></g></svg>